<?xml version="1.0" standalone="no"?><!DOCTYPE svg PUBLIC "-//W3C//DTD SVG 1.1//EN" "http://www.w3.org/Graphics/SVG/1.1/DTD/svg11.dtd"><svg class="icon" width="200px" height="200.00px" viewBox="0 0 1024 1024" version="1.1" xmlns="http://www.w3.org/2000/svg"><path d="M348.229818 205.265455A398.568727 398.568727 0 0 1 512 170.356364c58.437818 0 113.896727 12.474182 163.770182 34.909091l59.857454 33.442909c105.728 71.586909 168.773818 189.323636 168.680728 315.019636 0 54.039273-11.496727 106.542545-33.303273 154.833455 65.256727 26.926545 103.051636 94.114909 91.298909 162.39709-11.752727 68.258909-69.957818 119.691636-140.637091 124.276364l-10.449454 0.325818H212.782545c-72.750545 0.023273-135.447273-50.013091-149.969454-119.691636-14.475636-69.655273 23.272727-139.659636 90.251636-167.377455a373.806545 373.806545 0 0 1-33.373091-154.763636c-0.093091-125.696 62.952727-243.432727 168.680728-315.019636l59.857454-33.466182z m462.987637 556.38109H212.782545c-45.986909 0.046545-83.851636 35.281455-86.225454 80.128-2.327273 44.869818 31.650909 83.688727 77.381818 88.343273l8.843636 0.465455h598.43491c47.732364 0 86.434909-37.818182 86.434909-84.48 0-46.638545-38.702545-84.48-86.434909-84.48zM512 235.333818c-113.058909-0.023273-218.065455 57.204364-277.410909 151.226182a312.087273 312.087273 0 0 0-13.824 310.109091h582.353454l0.651637-0.977455a312.087273 312.087273 0 0 0-14.638546-309.620363C729.716364 292.328727 624.872727 235.287273 512 235.333818z m-478.743273 168.96c16.058182-0.023273 29.812364 11.170909 32.698182 26.624l0.535273 5.841455v204.683636a32.791273 32.791273 0 0 1-30.254546 32.418909c-17.128727 1.512727-32.628364-10.007273-35.700363-26.577454L0 641.442909v-204.683636c0-17.92 14.894545-32.488727 33.256727-32.488728z m957.486546 0c16.058182-0.023273 29.835636 11.170909 32.721454 26.624l0.535273 5.841455v204.683636a32.791273 32.791273 0 0 1-30.254545 32.418909c-17.128727 1.512727-32.628364-10.007273-35.700364-26.577454l-0.535273-5.841455v-204.683636c0-17.92 14.894545-32.488727 33.233455-32.488728z m-598.434909 32.465455c33.047273 0 59.857455 26.181818 59.857454 58.484363s-26.810182 58.484364-59.857454 58.484364c-33.047273 0-59.834182-26.181818-59.834182-58.484364s26.786909-58.484364 59.834182-58.484363z m239.383272 0c33.047273 0 59.834182 26.181818 59.834182 58.484363s-26.786909 58.484364-59.834182 58.484364c-33.047273 0-59.857455-26.181818-59.857454-58.484364s26.810182-58.484364 59.857454-58.484363z" fill="#666666" /><path d="M455.121455 56.878545m42.658909 0l0.023272 0q42.658909 0 42.658909 42.65891l0 85.34109q0 42.658909-42.658909 42.65891l-0.023272 0q-42.658909 0-42.658909-42.65891l0-85.34109q0-42.658909 42.658909-42.65891Z" fill="#666666" /><path d="M497.780364 71.121455m-71.121455 0a71.121455 71.121455 0 1 0 142.242909 0 71.121455 71.121455 0 1 0-142.242909 0Z" fill="#666666" /></svg>